P3
# CREATOR: GIMP PNM Filter Version 1.1
17 14
255
255
255
255
255
255
255
255
255
255
255
255
255
255
255
255
255
255
255
255
255
255
255
255
255
255
255
255
255
255
255
255
255
255
255
255
255
255
255
255
255
255
255
255
255
255
255
255
255
255
255
255
255
255
255
255
255
255
255
255
255
119
119
119
119
119
119
119
119
119
119
119
119
210
210
210
210
210
210
210
210
210
210
210
210
119
119
119
119
119
119
119
119
119
119
119
119
255
255
255
255
255
255
255
255
255
255
255
255
255
255
255
119
119
119
119
119
119
119
119
119
119
119
119
210
210
210
210
210
210
210
210
210
210
210
210
119
119
119
119
119
119
119
119
119
119
119
119
255
255
255
255
255
255
255
255
255
255
255
255
255
255
255
119
119
119
119
119
119
119
119
119
119
119
119
210
210
210
210
210
210
210
210
210
210
210
210
119
119
119
119
119
119
119
119
119
119
119
119
255
255
255
255
255
255
255
255
255
255
255
255
255
255
255
119
119
119
119
119
119
119
119
119
119
119
119
210
210
210
210
210
210
210
210
210
210
210
210
119
119
119
119
119
119
119
119
119
119
119
119
255
255
255
255
255
255
255
255
255
255
255
255
255
255
255
210
210
210
210
210
210
210
210
210
210
210
210
119
119
119
119
119
119
119
119
119
119
119
119
210
210
210
210
210
210
210
210
210
210
210
210
255
255
255
255
255
255
255
255
255
255
255
255
255
255
255
210
210
210
210
210
210
210
210
210
210
210
210
119
119
119
119
119
119
119
119
119
119
119
119
210
210
210
210
210
210
210
210
210
210
210
210
255
255
255
255
255
255
255
255
255
255
255
255
255
255
255
210
210
210
210
210
210
210
210
210
210
210
210
119
119
119
119
119
119
119
119
119
119
119
119
210
210
210
210
210
210
210
210
210
210
210
210
255
255
255
255
255
255
255
255
255
255
255
255
255
255
255
210
210
210
210
210
210
210
210
210
210
210
210
119
119
119
119
119
119
119
119
119
119
119
119
210
210
210
210
210
210
210
210
210
210
210
210
255
255
255
255
255
255
255
255
255
255
255
255
255
255
255
119
119
119
119
119
119
119
119
119
119
119
119
210
210
210
210
210
210
210
210
210
210
210
210
119
119
119
119
119
119
119
119
119
119
119
119
255
255
255
255
255
255
255
255
255
255
255
255
255
255
255
119
119
119
119
119
119
119
119
119
119
119
119
210
210
210
210
210
210
210
210
210
210
210
210
119
119
119
119
119
119
119
119
119
119
119
119
255
255
255
255
255
255
255
255
255
255
255
255
255
255
255
119
119
119
119
119
119
119
119
119
119
119
119
210
210
210
210
210
210
210
210
210
210
210
210
119
119
119
119
119
119
119
119
119
119
119
119
255
255
255
255
255
255
255
255
255
255
255
255
255
255
255
119
119
119
119
119
119
119
119
119
119
119
119
210
210
210
210
210
210
210
210
210
210
210
210
119
119
119
119
119
119
119
119
119
119
119
119
255
255
255
255
255
255
255
255
255
255
255
255
255
255
255
255
255
255
255
255
255
255
255
255
255
255
255
255
255
255
255
255
255
255
255
255
255
255
255
255
255
255
255
255
255
255
255
255
255
255
255
255
255
255
255
255
255
