P3
# CREATOR: GIMP PNM Filter Version 1.1
17 14
255
255
255
255
255
255
255
255
255
255
255
255
255
255
255
255
255
255
255
255
255
255
255
255
255
255
255
255
255
255
255
255
255
255
255
255
255
255
255
255
255
255
255
255
255
255
255
255
255
255
255
255
255
255
255
255
255
255
255
255
255
255
255
255
255
255
255
255
255
255
255
255
255
255
255
255
255
255
255
255
255
255
255
255
255
255
255
255
255
255
255
255
255
255
255
255
255
255
255
255
255
255
255
255
255
255
255
255
255
255
255
255
255
255
255
255
255
255
255
255
255
255
255
255
255
255
255
255
255
255
255
255
255
255
255
255
255
255
255
255
255
255
255
255
255
255
255
255
255
255
255
255
255
255
255
255
255
255
255
255
255
255
255
255
255
255
255
255
255
255
255
255
255
255
255
255
255
255
255
255
255
255
255
255
255
255
255
255
255
255
255
255
255
255
255
255
255
255
255
255
255
255
255
255
255
255
255
255
119
119
119
119
119
119
119
119
119
119
119
119
119
119
119
119
119
119
119
119
119
119
119
119
119
119
119
119
119
119
119
119
119
119
119
119
119
119
119
119
119
119
119
119
119
255
255
255
255
255
255
119
119
119
255
255
255
255
255
255
255
255
255
255
255
255
101
173
239
101
173
239
101
173
239
255
255
255
101
173
239
101
173
239
101
173
239
255
255
255
255
255
255
119
119
119
255
255
255
255
255
255
119
119
119
255
255
255
255
255
255
255
255
255
255
255
255
101
173
239
255
255
255
255
255
255
255
255
255
101
173
239
255
255
255
101
173
239
255
255
255
255
255
255
119
119
119
255
255
255
255
255
255
119
119
119
255
255
255
255
255
255
255
255
255
255
255
255
101
173
239
101
173
239
101
173
239
255
255
255
101
173
239
255
255
255
101
173
239
255
255
255
255
255
255
119
119
119
255
255
255
255
255
255
119
119
119
255
255
255
255
255
255
255
255
255
255
255
255
255
255
255
255
255
255
101
173
239
255
255
255
101
173
239
255
255
255
101
173
239
255
255
255
255
255
255
119
119
119
255
255
255
255
255
255
119
119
119
255
255
255
255
255
255
255
255
255
255
255
255
101
173
239
101
173
239
101
173
239
255
255
255
101
173
239
101
173
239
101
173
239
255
255
255
255
255
255
119
119
119
255
255
255
255
255
255
119
119
119
119
119
119
119
119
119
119
119
119
119
119
119
119
119
119
119
119
119
119
119
119
119
119
119
119
119
119
119
119
119
119
119
119
119
119
119
119
119
119
119
119
119
255
255
255
255
255
255
255
255
255
255
255
255
255
255
255
255
255
255
255
255
255
255
255
255
255
255
255
255
255
255
255
255
255
255
255
255
255
255
255
255
255
255
255
255
255
255
255
255
255
255
255
255
255
255
255
255
255
255
255
255
255
255
255
255
255
255
255
255
255
255
255
255
255
255
255
255
255
255
255
255
255
255
255
255
255
255
255
255
255
255
255
255
255
255
255
255
255
255
255
255
255
255
255
255
255
255
255
255
255
255
255
255
255
255
255
255
255
255
255
255
255
255
255
255
255
255
255
255
255
255
255
255
255
255
255
255
255
255
255
255
255
255
255
255
255
255
255
255
255
255
255
255
255
255
255
255
