P3
# CREATOR: GIMP PNM Filter Version 1.1
17 14
255
251
251
254
251
251
254
251
251
254
251
251
254
251
251
254
251
219
219
254
162
159
254
110
101
255
98
88
254
122
114
254
170
168
251
225
225
251
251
254
251
251
254
254
254
255
251
251
254
251
251
254
251
251
254
251
251
254
251
254
255
251
234
234
254
122
114
255
98
88
255
98
88
255
98
88
255
98
88
255
98
88
255
98
88
255
98
88
254
136
130
251
240
240
254
254
255
251
251
254
251
251
254
251
251
254
251
251
254
251
231
231
255
98
88
255
98
88
255
98
88
255
98
88
255
98
88
255
98
88
255
98
88
255
98
88
255
98
88
255
98
88
255
122
114
251
240
240
251
251
254
251
251
254
251
251
254
251
249
251
254
103
95
255
98
88
255
98
88
255
240
243
255
237
237
255
240
243
255
98
88
255
98
88
255
98
88
255
98
88
255
98
88
255
98
88
254
128
122
251
254
254
251
251
254
251
251
254
251
205
205
255
98
88
255
98
88
255
240
243
255
98
88
255
98
88
255
98
88
255
240
243
255
98
88
255
98
88
255
98
88
255
98
88
255
98
88
255
104
95
251
214
217
251
251
254
251
251
254
254
144
139
255
98
88
255
98
88
255
240
243
255
98
88
255
98
88
255
98
88
255
240
243
255
98
88
255
98
88
255
240
243
255
98
88
255
98
88
255
98
88
251
153
150
251
251
254
251
251
254
255
98
88
255
98
88
255
98
88
255
240
243
255
98
88
255
98
88
255
98
88
255
240
243
255
98
88
255
240
243
255
240
243
255
237
237
255
98
88
255
98
88
252
108
97
251
251
254
251
251
254
255
98
88
255
98
88
255
98
88
255
240
243
255
98
88
255
98
88
255
98
88
255
240
243
255
98
88
255
98
88
255
240
243
255
98
88
255
98
88
255
98
88
252
108
97
251
251
254
251
251
254
254
144
139
255
98
88
255
98
88
255
240
243
255
234
234
255
231
231
255
231
231
255
240
243
255
98
88
255
98
88
255
98
88
255
98
88
255
98
88
255
98
88
251
153
150
251
251
254
251
251
254
251
205
205
255
98
88
255
98
88
255
240
243
255
98
88
255
98
88
255
98
88
255
240
243
255
98
88
255
98
88
255
98
88
255
98
88
255
98
88
255
104
95
251
214
217
251
251
254
251
251
254
251
249
251
254
103
95
255
98
88
255
98
88
255
98
88
255
98
88
255
98
88
255
98
88
255
98
88
255
98
88
255
98
88
255
98
88
255
98
88
254
128
122
251
254
254
251
251
254
251
251
254
251
251
254
251
231
231
255
98
88
255
98
88
255
98
88
255
98
88
255
98
88
255
98
88
255
98
88
255
98
88
255
98
88
255
98
88
255
122
114
251
240
240
251
251
254
251
251
254
251
251
254
251
251
254
251
254
255
251
234
234
254
122
114
255
98
88
255
98
88
255
98
88
255
98
88
255
98
88
255
98
88
255
98
88
254
136
130
251
240
240
254
254
255
251
251
254
251
251
254
251
251
254
251
251
254
251
251
254
251
251
254
251
251
254
251
219
219
254
162
159
254
110
101
255
98
88
254
122
114
254
170
168
251
225
225
251
251
254
251
251
254
254
254
255
251
251
254
251
251
254
