P3
# CREATOR: GIMP PNM Filter Version 1.1
17 14
255
247
252
252
247
252
252
247
252
252
247
252
252
247
252
252
208
239
239
142
217
217
81
196
196
67
192
192
96
202
202
152
221
221
216
242
242
247
252
252
247
252
252
252
254
254
247
252
252
247
252
252
247
252
252
247
252
252
250
253
253
226
245
245
96
202
202
67
192
192
67
192
192
67
192
192
67
192
192
67
192
192
67
192
192
67
192
192
112
207
207
234
248
248
252
254
254
247
252
252
247
252
252
247
252
252
247
252
252
223
244
244
67
192
192
67
192
192
67
192
192
67
192
192
67
192
192
67
192
192
67
192
192
67
192
192
67
192
192
67
192
192
96
202
202
234
248
248
247
252
252
247
252
252
247
252
252
245
252
252
72
194
194
67
192
192
67
192
192
67
192
192
67
192
192
67
192
192
67
192
192
67
192
192
67
192
192
67
192
192
67
192
192
67
192
192
101
204
204
250
253
253
247
252
252
247
252
252
192
234
234
67
192
192
67
192
192
255
255
255
255
255
255
255
255
255
255
255
255
67
192
192
255
255
255
255
255
255
255
255
255
255
255
255
67
192
192
73
194
194
204
238
238
247
252
252
247
252
252
121
210
210
67
192
192
67
192
192
67
192
192
67
192
192
67
192
192
255
255
255
67
192
192
255
255
255
67
192
192
67
192
192
255
255
255
67
192
192
67
192
192
130
213
213
247
252
252
247
252
252
67
192
192
67
192
192
67
192
192
67
192
192
67
192
192
67
192
192
255
255
255
67
192
192
255
255
255
67
192
192
67
192
192
255
255
255
67
192
192
67
192
192
78
195
195
247
252
252
247
252
252
67
192
192
67
192
192
67
192
192
255
255
255
255
255
255
255
255
255
255
255
255
67
192
192
255
255
255
67
192
192
67
192
192
255
255
255
67
192
192
67
192
192
78
195
195
247
252
252
247
252
252
121
210
210
67
192
192
67
192
192
255
255
255
67
192
192
67
192
192
67
192
192
67
192
192
255
255
255
67
192
192
67
192
192
255
255
255
67
192
192
67
192
192
130
213
213
247
252
252
247
252
252
192
234
234
67
192
192
67
192
192
255
255
255
67
192
192
67
192
192
67
192
192
67
192
192
255
255
255
67
192
192
67
192
192
255
255
255
67
192
192
73
194
194
204
238
238
247
252
252
247
252
252
245
252
252
72
194
194
67
192
192
255
255
255
255
255
255
255
255
255
255
255
255
67
192
192
255
255
255
255
255
255
255
255
255
255
255
255
67
192
192
101
204
204
250
253
253
247
252
252
247
252
252
247
252
252
223
244
244
67
192
192
67
192
192
67
192
192
67
192
192
67
192
192
67
192
192
67
192
192
67
192
192
67
192
192
67
192
192
96
202
202
234
248
248
247
252
252
247
252
252
247
252
252
247
252
252
250
253
253
226
245
245
96
202
202
67
192
192
67
192
192
67
192
192
67
192
192
67
192
192
67
192
192
67
192
192
112
207
207
234
248
248
252
254
254
247
252
252
247
252
252
247
252
252
247
252
252
247
252
252
247
252
252
247
252
252
208
239
239
142
217
217
81
196
196
67
192
192
96
202
202
152
221
221
216
242
242
247
252
252
247
252
252
252
254
254
247
252
252
247
252
252
