P3
# CREATOR: GIMP PNM Filter Version 1.1
17 14
255
255
255
255
255
255
255
255
255
255
255
255
255
255
255
255
255
255
255
255
255
255
255
255
255
255
255
255
255
255
255
255
255
255
255
255
255
255
255
255
255
255
255
255
255
255
255
255
255
255
255
255
255
255
255
255
255
255
255
255
255
255
255
255
255
255
255
255
255
255
226
226
226
169
169
169
128
128
128
128
128
128
169
169
169
226
226
226
255
255
255
255
255
255
255
255
255
255
255
255
255
255
255
255
255
255
255
255
255
255
255
255
255
255
255
252
252
252
170
170
170
118
118
118
118
118
118
118
118
118
118
118
118
118
118
118
118
118
118
170
170
170
252
252
252
255
255
255
255
255
255
255
255
255
255
255
255
255
255
255
255
255
255
255
255
255
170
170
170
118
118
118
118
118
118
118
118
118
118
118
118
118
118
118
118
118
118
118
118
118
118
118
118
170
170
170
255
255
255
255
255
255
255
255
255
255
255
255
255
255
255
255
255
255
226
226
226
118
118
118
118
118
118
219
219
219
118
118
118
118
118
118
219
219
219
118
118
118
118
118
118
118
118
118
118
118
118
226
226
226
255
255
255
255
255
255
255
255
255
255
255
255
255
255
255
169
169
169
118
118
118
118
118
118
118
118
118
219
219
219
118
118
118
118
118
118
219
219
219
118
118
118
118
118
118
118
118
118
169
169
169
255
255
255
255
255
255
255
255
255
255
255
255
255
255
255
128
128
128
118
118
118
118
118
118
118
118
118
118
118
118
219
219
219
118
118
118
118
118
118
219
219
219
118
118
118
118
118
118
128
128
128
255
255
255
255
255
255
255
255
255
255
255
255
255
255
255
128
128
128
118
118
118
118
118
118
118
118
118
219
219
219
118
118
118
118
118
118
219
219
219
118
118
118
118
118
118
118
118
118
128
128
128
255
255
255
255
255
255
255
255
255
255
255
255
255
255
255
169
169
169
118
118
118
118
118
118
219
219
219
118
118
118
118
118
118
219
219
219
118
118
118
118
118
118
118
118
118
118
118
118
169
169
169
255
255
255
255
255
255
255
255
255
255
255
255
255
255
255
226
226
226
118
118
118
118
118
118
118
118
118
118
118
118
118
118
118
118
118
118
118
118
118
118
118
118
118
118
118
118
118
118
226
226
226
255
255
255
255
255
255
255
255
255
255
255
255
255
255
255
255
255
255
170
170
170
118
118
118
118
118
118
118
118
118
118
118
118
118
118
118
118
118
118
118
118
118
118
118
118
170
170
170
255
255
255
255
255
255
255
255
255
255
255
255
255
255
255
255
255
255
255
255
255
252
252
252
170
170
170
118
118
118
118
118
118
118
118
118
118
118
118
118
118
118
118
118
118
170
170
170
252
252
252
255
255
255
255
255
255
255
255
255
255
255
255
255
255
255
255
255
255
255
255
255
255
255
255
255
255
255
226
226
226
169
169
169
128
128
128
128
128
128
169
169
169
226
226
226
255
255
255
255
255
255
255
255
255
255
255
255
255
255
255
255
255
255
255
255
255
255
255
255
255
255
255
255
255
255
255
255
255
255
255
255
255
255
255
255
255
255
255
255
255
255
255
255
255
255
255
255
255
255
255
255
255
255
255
255
255
255
255
255
255
255
