P3
# CREATOR: GIMP PNM Filter Version 1.1
17 14
255
254
254
253
254
254
253
254
254
253
254
254
253
254
254
253
254
254
253
254
254
253
254
254
253
254
254
253
254
254
253
254
254
253
254
254
253
254
254
253
254
254
253
254
254
253
254
254
253
254
254
253
254
254
253
254
254
253
254
254
253
254
254
253
254
254
253
254
254
253
229
240
210
180
211
123
145
190
63
145
190
63
180
211
123
229
240
210
254
254
253
254
254
253
254
254
253
254
254
253
254
254
253
254
254
253
254
254
253
254
254
253
254
254
253
251
253
248
181
211
126
134
175
58
134
175
58
134
175
58
134
175
58
134
175
58
134
175
58
181
211
126
251
253
248
254
254
253
254
254
253
254
254
253
254
254
253
254
254
253
254
254
253
254
254
253
181
211
126
134
175
58
134
175
58
134
175
58
134
175
58
134
175
58
134
175
58
134
175
58
134
175
58
181
211
126
254
254
253
254
254
253
254
254
253
254
254
253
254
254
253
254
254
253
229
240
210
134
175
58
134
175
58
222
236
197
134
175
58
134
175
58
222
236
197
134
175
58
134
175
58
134
175
58
134
175
58
229
240
210
254
254
253
254
254
253
254
254
253
254
254
253
254
254
253
180
211
123
134
175
58
134
175
58
134
175
58
222
236
197
134
175
58
134
175
58
222
236
197
134
175
58
134
175
58
134
175
58
180
211
123
254
254
253
254
254
253
254
254
253
254
254
253
254
254
253
145
190
63
134
175
58
134
175
58
134
175
58
134
175
58
222
236
197
134
175
58
134
175
58
222
236
197
134
175
58
134
175
58
145
190
63
254
254
253
254
254
253
254
254
253
254
254
253
254
254
253
145
190
63
134
175
58
134
175
58
134
175
58
222
236
197
134
175
58
134
175
58
222
236
197
134
175
58
134
175
58
134
175
58
145
190
63
254
254
253
254
254
253
254
254
253
254
254
253
254
254
253
180
211
123
134
175
58
134
175
58
222
236
197
134
175
58
134
175
58
222
236
197
134
175
58
134
175
58
134
175
58
134
175
58
180
211
123
254
254
253
254
254
253
254
254
253
254
254
253
254
254
253
229
240
210
134
175
58
134
175
58
134
175
58
134
175
58
134
175
58
134
175
58
134
175
58
134
175
58
134
175
58
134
175
58
229
240
210
254
254
253
254
254
253
254
254
253
254
254
253
254
254
253
254
254
253
181
211
126
134
175
58
134
175
58
134
175
58
134
175
58
134
175
58
134
175
58
134
175
58
134
175
58
181
211
126
254
254
253
254
254
253
254
254
253
254
254
253
254
254
253
254
254
253
254
254
253
251
253
248
181
211
126
134
175
58
134
175
58
134
175
58
134
175
58
134
175
58
134
175
58
181
211
126
251
253
248
254
254
253
254
254
253
254
254
253
254
254
253
254
254
253
254
254
253
254
254
253
254
254
253
254
254
253
229
240
210
180
211
123
145
190
63
145
190
63
180
211
123
229
240
210
254
254
253
254
254
253
254
254
253
254
254
253
254
254
253
254
254
253
254
254
253
254
254
253
254
254
253
254
254
253
254
254
253
254
254
253
254
254
253
254
254
253
254
254
253
254
254
253
254
254
253
254
254
253
254
254
253
254
254
253
254
254
253
254
254
253
