P3
# CREATOR: GIMP PNM Filter Version 1.1
17 14
255
252
252
254
252
252
254
252
252
254
252
252
254
252
252
254
252
252
254
252
252
254
252
252
254
252
252
254
252
252
254
252
252
254
252
252
254
252
252
254
252
252
254
252
252
254
252
252
254
252
252
254
252
252
254
252
252
254
252
252
254
252
252
254
252
252
254
252
252
254
232
223
244
192
166
225
163
126
211
163
126
211
192
166
225
232
223
244
252
252
254
252
252
254
252
252
254
252
252
254
252
252
254
252
252
254
252
252
254
252
252
254
252
252
254
249
247
252
193
168
226
150
108
206
150
108
206
150
108
206
150
108
206
150
108
206
150
108
206
193
168
226
249
247
252
252
252
254
252
252
254
252
252
254
252
252
254
252
252
254
252
252
254
252
252
254
193
168
226
150
108
206
150
108
206
150
108
206
150
108
206
150
108
206
150
108
206
150
108
206
150
108
206
193
168
226
252
252
254
252
252
254
252
252
254
252
252
254
252
252
254
252
252
254
232
223
244
150
108
206
150
108
206
150
108
206
150
108
206
150
108
206
150
108
206
150
108
206
150
108
206
150
108
206
150
108
206
232
223
244
252
252
254
252
252
254
252
252
254
252
252
254
252
252
254
192
166
225
150
108
206
227
216
242
150
108
206
150
108
206
227
216
242
150
108
206
150
108
206
227
216
242
150
108
206
150
108
206
192
166
225
252
252
254
252
252
254
252
252
254
252
252
254
252
252
254
163
126
211
150
108
206
150
108
206
227
216
242
150
108
206
150
108
206
227
216
242
150
108
206
150
108
206
227
216
242
150
108
206
163
126
211
252
252
254
252
252
254
252
252
254
252
252
254
252
252
254
163
126
211
150
108
206
227
216
242
150
108
206
150
108
206
227
216
242
150
108
206
150
108
206
227
216
242
150
108
206
150
108
206
163
126
211
252
252
254
252
252
254
252
252
254
252
252
254
252
252
254
192
166
225
150
108
206
150
108
206
150
108
206
150
108
206
150
108
206
150
108
206
150
108
206
150
108
206
150
108
206
150
108
206
192
166
225
252
252
254
252
252
254
252
252
254
252
252
254
252
252
254
232
223
244
150
108
206
150
108
206
150
108
206
150
108
206
150
108
206
150
108
206
150
108
206
150
108
206
150
108
206
150
108
206
232
223
244
252
252
254
252
252
254
252
252
254
252
252
254
252
252
254
252
252
254
193
168
226
150
108
206
150
108
206
150
108
206
150
108
206
150
108
206
150
108
206
150
108
206
150
108
206
193
168
226
252
252
254
252
252
254
252
252
254
252
252
254
252
252
254
252
252
254
252
252
254
249
247
252
193
168
226
150
108
206
150
108
206
150
108
206
150
108
206
150
108
206
150
108
206
193
168
226
249
247
252
252
252
254
252
252
254
252
252
254
252
252
254
252
252
254
252
252
254
252
252
254
252
252
254
252
252
254
232
223
244
192
166
225
163
126
211
163
126
211
192
166
225
232
223
244
252
252
254
252
252
254
252
252
254
252
252
254
252
252
254
252
252
254
252
252
254
252
252
254
252
252
254
252
252
254
252
252
254
252
252
254
252
252
254
252
252
254
252
252
254
252
252
254
252
252
254
252
252
254
252
252
254
252
252
254
252
252
254
252
252
254
