P3
# CREATOR: GIMP PNM Filter Version 1.1
17 14
255
246
246
249
246
246
249
246
246
249
246
246
249
246
246
249
246
246
249
246
246
249
246
246
249
246
246
249
246
246
249
246
246
249
246
246
249
246
246
249
246
246
249
246
246
249
246
246
249
246
246
249
246
246
249
246
246
249
246
246
249
246
246
249
246
246
249
246
246
249
213
214
226
145
148
178
101
104
144
101
104
144
145
148
178
213
214
226
246
246
249
246
246
249
246
246
249
246
246
249
246
246
249
246
246
249
246
246
249
246
246
249
246
246
249
240
241
245
149
151
180
86
89
123
86
89
123
86
89
123
86
89
123
86
89
123
86
89
123
149
151
180
240
241
245
246
246
249
246
246
249
246
246
249
246
246
249
246
246
249
246
246
249
246
246
249
149
151
180
86
89
123
86
89
123
86
89
123
86
89
123
86
89
123
86
89
123
86
89
123
86
89
123
149
151
180
246
246
249
246
246
249
246
246
249
246
246
249
246
246
249
246
246
249
213
214
226
86
89
123
86
89
123
86
89
123
86
89
123
86
89
123
86
89
123
86
89
123
86
89
123
86
89
123
86
89
123
213
214
226
246
246
249
246
246
249
246
246
249
246
246
249
246
246
249
145
148
178
86
89
123
86
89
123
213
214
226
213
214
226
213
214
226
213
214
226
213
214
226
213
214
226
86
89
123
86
89
123
145
148
178
246
246
249
246
246
249
246
246
249
246
246
249
246
246
249
101
104
144
86
89
123
213
214
226
86
89
123
86
89
123
86
89
123
86
89
123
86
89
123
86
89
123
213
214
226
86
89
123
101
104
144
246
246
249
246
246
249
246
246
249
246
246
249
246
246
249
101
104
144
86
89
123
86
89
123
86
89
123
213
214
226
213
214
226
213
214
226
213
214
226
86
89
123
86
89
123
86
89
123
101
104
144
246
246
249
246
246
249
246
246
249
246
246
249
246
246
249
145
148
178
86
89
123
86
89
123
213
214
226
86
89
123
86
89
123
86
89
123
86
89
123
213
214
226
86
89
123
86
89
123
145
148
178
246
246
249
246
246
249
246
246
249
246
246
249
246
246
249
213
214
226
86
89
123
86
89
123
86
89
123
86
89
123
213
214
226
213
214
226
86
89
123
86
89
123
86
89
123
86
89
123
213
214
226
246
246
249
246
246
249
246
246
249
246
246
249
246
246
249
246
246
249
149
151
180
86
89
123
86
89
123
213
214
226
86
89
123
86
89
123
213
214
226
86
89
123
86
89
123
149
151
180
246
246
249
246
246
249
246
246
249
246
246
249
246
246
249
246
246
249
246
246
249
240
241
245
149
151
180
86
89
123
86
89
123
86
89
123
86
89
123
86
89
123
86
89
123
149
151
180
240
241
245
246
246
249
246
246
249
246
246
249
246
246
249
246
246
249
246
246
249
246
246
249
246
246
249
246
246
249
213
214
226
145
148
178
101
104
144
101
104
144
145
148
178
213
214
226
246
246
249
246
246
249
246
246
249
246
246
249
246
246
249
246
246
249
246
246
249
246
246
249
246
246
249
246
246
249
246
246
249
246
246
249
246
246
249
246
246
249
246
246
249
246
246
249
246
246
249
246
246
249
246
246
249
246
246
249
246
246
249
246
246
249
