P3
# CREATOR: GIMP PNM Filter Version 1.1
17 14
255
255
255
255
255
255
255
255
255
255
255
255
255
255
255
255
255
255
255
255
255
255
255
255
255
255
255
255
255
255
255
255
255
255
255
255
255
255
255
255
255
255
255
255
255
255
255
255
255
255
255
255
255
255
255
255
255
255
255
255
255
255
255
255
255
255
255
255
255
255
255
255
255
255
255
255
255
255
255
255
255
255
255
255
255
255
255
255
255
255
255
255
255
255
255
255
255
255
255
255
255
255
255
255
255
255
255
255
255
255
255
255
118
118
118
118
118
118
118
118
118
118
118
118
118
118
118
118
118
118
118
118
118
118
118
118
118
118
118
118
118
118
118
118
118
255
255
255
255
255
255
255
255
255
255
255
255
255
255
255
255
255
255
118
118
118
208
223
237
208
223
237
208
223
237
208
223
237
236
210
184
236
210
184
255
202
151
255
202
151
255
202
151
118
118
118
255
255
255
255
255
255
255
255
255
255
255
255
255
255
255
255
255
255
118
118
118
208
223
237
208
223
237
208
223
237
208
223
237
236
210
184
236
210
184
255
202
151
255
202
151
255
202
151
118
118
118
255
255
255
255
255
255
255
255
255
255
255
255
255
255
255
255
255
255
118
118
118
208
223
237
208
223
237
208
223
237
208
223
237
236
210
184
236
210
184
255
202
151
255
202
151
255
202
151
118
118
118
255
255
255
255
255
255
255
255
255
255
255
255
255
255
255
255
255
255
118
118
118
208
223
237
208
223
237
208
223
237
208
223
237
236
210
184
236
210
184
236
210
184
236
210
184
236
210
184
118
118
118
255
255
255
255
255
255
255
255
255
255
255
255
255
255
255
255
255
255
118
118
118
208
223
237
208
223
237
208
223
237
208
223
237
236
210
184
236
210
184
236
210
184
236
210
184
236
210
184
118
118
118
255
255
255
255
255
255
255
255
255
255
255
255
255
255
255
255
255
255
118
118
118
208
223
237
208
223
237
208
223
237
208
223
237
208
223
237
208
223
237
208
223
237
208
223
237
208
223
237
118
118
118
255
255
255
255
255
255
255
255
255
255
255
255
255
255
255
255
255
255
118
118
118
208
223
237
208
223
237
208
223
237
208
223
237
208
223
237
208
223
237
208
223
237
208
223
237
208
223
237
118
118
118
255
255
255
255
255
255
255
255
255
255
255
255
255
255
255
255
255
255
118
118
118
208
223
237
208
223
237
208
223
237
208
223
237
208
223
237
208
223
237
208
223
237
208
223
237
208
223
237
118
118
118
255
255
255
255
255
255
255
255
255
255
255
255
255
255
255
255
255
255
118
118
118
118
118
118
118
118
118
118
118
118
118
118
118
118
118
118
118
118
118
118
118
118
118
118
118
118
118
118
118
118
118
255
255
255
255
255
255
255
255
255
255
255
255
255
255
255
255
255
255
255
255
255
255
255
255
255
255
255
255
255
255
255
255
255
255
255
255
255
255
255
255
255
255
255
255
255
255
255
255
255
255
255
255
255
255
255
255
255
255
255
255
255
255
255
255
255
255
255
255
255
255
255
255
255
255
255
255
255
255
255
255
255
255
255
255
255
255
255
255
255
255
255
255
255
255
255
255
255
255
255
255
255
255
255
255
255
255
255
255
255
255
255
