P3
# CREATOR: GIMP PNM Filter Version 1.1
17 14
255
255
255
255
255
255
255
255
255
255
255
255
255
255
255
255
255
255
255
255
255
255
255
255
255
255
255
255
255
255
255
255
255
255
255
255
255
255
255
255
255
255
255
255
255
255
255
255
255
255
255
255
255
255
255
255
255
255
255
255
255
255
255
255
255
255
255
255
255
255
255
255
255
255
255
255
255
255
255
255
255
255
255
255
255
255
255
255
255
255
255
255
255
255
255
255
255
255
255
255
255
255
255
255
255
255
255
255
255
255
255
255
118
118
118
118
118
118
118
118
118
118
118
118
118
118
118
118
118
118
118
118
118
118
118
118
118
118
118
118
118
118
118
118
118
255
255
255
255
255
255
255
255
255
255
255
255
255
255
255
255
255
255
118
118
118
30
30
30
30
30
30
30
30
30
30
30
30
30
30
30
30
30
30
207
203
84
207
203
84
207
203
84
118
118
118
255
255
255
255
255
255
255
255
255
255
255
255
255
255
255
255
255
255
118
118
118
30
30
30
30
30
30
30
30
30
30
30
30
30
30
30
30
30
30
207
203
84
207
203
84
207
203
84
118
118
118
255
255
255
255
255
255
255
255
255
255
255
255
255
255
255
255
255
255
118
118
118
30
30
30
30
30
30
30
30
30
30
30
30
30
30
30
30
30
30
207
203
84
207
203
84
207
203
84
118
118
118
255
255
255
255
255
255
255
255
255
255
255
255
255
255
255
255
255
255
118
118
118
30
30
30
30
30
30
30
30
30
30
30
30
30
30
30
30
30
30
30
30
30
30
30
30
30
30
30
118
118
118
255
255
255
255
255
255
255
255
255
255
255
255
255
255
255
255
255
255
118
118
118
30
30
30
30
30
30
30
30
30
30
30
30
30
30
30
30
30
30
30
30
30
30
30
30
30
30
30
118
118
118
255
255
255
255
255
255
255
255
255
255
255
255
255
255
255
255
255
255
118
118
118
77
77
77
77
77
77
77
77
77
77
77
77
77
77
77
30
30
30
30
30
30
30
30
30
30
30
30
118
118
118
255
255
255
255
255
255
255
255
255
255
255
255
255
255
255
255
255
255
118
118
118
77
77
77
77
77
77
77
77
77
77
77
77
77
77
77
77
77
77
77
77
77
77
77
77
77
77
77
118
118
118
255
255
255
255
255
255
255
255
255
255
255
255
255
255
255
255
255
255
118
118
118
77
77
77
77
77
77
77
77
77
77
77
77
77
77
77
77
77
77
77
77
77
77
77
77
77
77
77
118
118
118
255
255
255
255
255
255
255
255
255
255
255
255
255
255
255
255
255
255
118
118
118
118
118
118
118
118
118
118
118
118
118
118
118
118
118
118
118
118
118
118
118
118
118
118
118
118
118
118
118
118
118
255
255
255
255
255
255
255
255
255
255
255
255
255
255
255
255
255
255
255
255
255
255
255
255
255
255
255
255
255
255
255
255
255
255
255
255
255
255
255
255
255
255
255
255
255
255
255
255
255
255
255
255
255
255
255
255
255
255
255
255
255
255
255
255
255
255
255
255
255
255
255
255
255
255
255
255
255
255
255
255
255
255
255
255
255
255
255
255
255
255
255
255
255
255
255
255
255
255
255
255
255
255
255
255
255
255
255
255
255
255
255
