P3
# CREATOR: GIMP PNM Filter Version 1.1
17 14
255
255
255
255
255
255
255
255
255
255
255
255
255
255
255
255
255
255
255
255
255
255
255
255
255
255
255
255
255
255
255
255
255
255
255
255
255
255
255
255
255
255
255
255
255
255
255
255
255
255
255
255
255
255
255
255
255
255
255
255
255
101
173
239
101
173
239
101
173
239
255
255
255
101
173
239
101
173
239
101
173
239
255
255
255
101
173
239
101
173
239
101
173
239
255
255
255
255
255
255
255
255
255
255
255
255
255
255
255
255
255
255
101
173
239
101
173
239
101
173
239
255
255
255
101
173
239
101
173
239
101
173
239
255
255
255
101
173
239
101
173
239
101
173
239
255
255
255
255
255
255
255
255
255
255
255
255
255
255
255
255
255
255
101
173
239
101
173
239
101
173
239
255
255
255
101
173
239
101
173
239
101
173
239
255
255
255
101
173
239
101
173
239
101
173
239
255
255
255
255
255
255
255
255
255
255
255
255
255
255
255
255
255
255
255
255
255
255
255
255
255
255
255
255
255
255
255
255
255
255
255
255
255
255
255
255
255
255
255
255
255
255
255
255
255
255
255
255
255
255
255
255
255
255
255
255
255
255
255
255
255
255
255
255
255
101
173
239
101
173
239
101
173
239
255
255
255
68
191
100
68
191
100
68
191
100
255
255
255
101
173
239
101
173
239
101
173
239
255
255
255
255
255
255
255
255
255
255
255
255
255
255
255
255
255
255
101
173
239
101
173
239
101
173
239
255
255
255
68
191
100
68
191
100
68
191
100
255
255
255
101
173
239
101
173
239
101
173
239
255
255
255
255
255
255
255
255
255
255
255
255
255
255
255
255
255
255
101
173
239
101
173
239
101
173
239
255
255
255
68
191
100
68
191
100
68
191
100
255
255
255
101
173
239
101
173
239
101
173
239
255
255
255
255
255
255
255
255
255
255
255
255
255
255
255
255
255
255
255
255
255
255
255
255
255
255
255
255
255
255
255
255
255
255
255
255
255
255
255
255
255
255
255
255
255
255
255
255
255
255
255
255
255
255
255
255
255
255
255
255
255
255
255
255
255
255
255
255
255
101
173
239
101
173
239
101
173
239
255
255
255
101
173
239
101
173
239
101
173
239
255
255
255
101
173
239
101
173
239
101
173
239
255
255
255
255
255
255
255
255
255
255
255
255
255
255
255
255
255
255
101
173
239
101
173
239
101
173
239
255
255
255
101
173
239
101
173
239
101
173
239
255
255
255
101
173
239
101
173
239
101
173
239
255
255
255
255
255
255
255
255
255
255
255
255
255
255
255
255
255
255
101
173
239
101
173
239
101
173
239
255
255
255
101
173
239
101
173
239
101
173
239
255
255
255
101
173
239
101
173
239
101
173
239
255
255
255
255
255
255
255
255
255
255
255
255
255
255
255
255
255
255
255
255
255
255
255
255
255
255
255
255
255
255
255
255
255
255
255
255
255
255
255
255
255
255
255
255
255
255
255
255
255
255
255
255
255
255
255
255
255
255
255
255
255
255
255
255
255
255
255
255
255
255
255
255
255
255
255
255
255
255
255
255
255
255
255
255
255
255
255
255
255
255
255
255
255
255
255
255
255
255
255
255
255
255
255
255
255
255
255
255
255
255
255
