P3
# CREATOR: GIMP PNM Filter Version 1.1
17 14
255
255
255
255
255
255
255
255
255
255
255
255
255
255
255
255
255
255
255
255
255
255
255
255
255
255
255
255
255
255
255
255
255
255
255
255
255
255
255
255
255
255
255
255
255
255
255
255
255
255
255
255
255
255
255
255
255
255
193
152
114
193
152
114
193
152
114
193
152
114
193
152
114
193
152
114
193
152
114
193
152
114
193
152
114
193
152
114
193
152
114
193
152
114
193
152
114
255
255
255
255
255
255
255
255
255
255
255
255
193
152
114
255
202
151
255
202
151
193
152
114
255
255
255
255
255
255
255
255
255
255
255
255
255
255
255
193
152
114
255
202
151
255
202
151
193
152
114
255
255
255
255
255
255
255
255
255
255
255
255
193
152
114
255
202
151
255
202
151
193
152
114
255
255
255
255
255
255
255
255
255
255
255
255
255
255
255
193
152
114
255
202
151
255
202
151
193
152
114
255
255
255
255
255
255
255
255
255
255
255
255
193
152
114
255
202
151
255
202
151
193
152
114
255
255
255
255
255
255
255
255
255
255
255
255
255
255
255
193
152
114
255
202
151
255
202
151
193
152
114
255
255
255
255
255
255
255
255
255
255
255
255
193
152
114
255
202
151
255
202
151
193
152
114
255
255
255
255
255
255
255
255
255
255
255
255
255
255
255
193
152
114
255
202
151
255
202
151
193
152
114
255
255
255
255
255
255
255
255
255
255
255
255
193
152
114
255
202
151
255
202
151
193
152
114
193
152
114
255
255
255
255
255
255
255
255
255
193
152
114
193
152
114
255
202
151
255
202
151
193
152
114
255
255
255
255
255
255
255
255
255
255
255
255
193
152
114
255
202
151
255
202
151
255
202
151
193
152
114
193
152
114
193
152
114
193
152
114
193
152
114
255
202
151
255
202
151
255
202
151
193
152
114
255
255
255
255
255
255
255
255
255
255
255
255
193
152
114
255
202
151
255
202
151
255
202
151
255
202
151
255
202
151
255
202
151
255
202
151
255
202
151
255
202
151
255
202
151
255
202
151
193
152
114
255
255
255
255
255
255
255
255
255
255
255
255
193
152
114
255
202
151
255
202
151
255
202
151
255
202
151
255
202
151
255
202
151
255
202
151
255
202
151
255
202
151
255
202
151
255
202
151
193
152
114
255
255
255
255
255
255
255
255
255
255
255
255
193
152
114
255
202
151
255
202
151
255
202
151
255
202
151
255
202
151
255
202
151
255
202
151
255
202
151
255
202
151
255
202
151
255
202
151
193
152
114
255
255
255
255
255
255
255
255
255
255
255
255
193
152
114
255
202
151
255
202
151
255
202
151
255
202
151
255
202
151
255
202
151
255
202
151
255
202
151
255
202
151
255
202
151
255
202
151
193
152
114
255
255
255
255
255
255
255
255
255
255
255
255
193
152
114
193
152
114
193
152
114
193
152
114
193
152
114
193
152
114
193
152
114
193
152
114
193
152
114
193
152
114
193
152
114
193
152
114
193
152
114
255
255
255
255
255
255
255
255
255
255
255
255
255
255
255
255
255
255
255
255
255
255
255
255
255
255
255
255
255
255
255
255
255
255
255
255
255
255
255
255
255
255
255
255
255
255
255
255
255
255
255
255
255
255
255
255
255
