P3
# CREATOR: GIMP PNM Filter Version 1.1
17 14
255
255
255
255
255
255
255
255
255
255
255
255
255
255
255
255
255
255
255
255
255
255
255
255
255
255
255
255
255
255
255
255
255
255
255
255
255
255
255
255
255
255
255
255
255
255
255
255
255
255
255
255
255
255
255
255
255
255
255
255
255
255
255
255
254
253
253
238
165
156
233
143
132
228
113
99
221
75
57
223
89
73
232
135
123
250
228
226
255
255
255
255
255
255
255
255
255
255
255
255
255
255
255
255
255
255
255
255
255
255
255
255
255
255
255
233
143
132
230
125
112
255
255
255
255
255
255
232
133
121
221
76
58
244
199
194
255
255
255
255
255
255
255
255
255
255
255
255
255
255
255
255
255
255
255
255
255
255
255
255
255
255
255
253
246
245
221
78
60
236
156
147
255
255
255
255
255
255
250
231
228
221
75
57
231
131
119
255
255
255
255
255
255
255
255
255
255
255
255
255
255
255
255
255
255
255
255
255
255
255
255
255
255
255
251
238
237
221
75
57
230
125
112
255
255
255
255
255
255
255
255
255
222
84
67
232
136
124
255
255
255
255
255
255
255
255
255
255
255
255
255
255
255
255
255
255
255
255
255
255
255
255
255
255
255
255
255
255
226
104
89
221
79
61
248
219
215
255
255
255
252
242
241
222
84
67
248
219
215
255
255
255
255
255
255
255
255
255
221
75
57
255
255
255
255
255
255
255
255
255
255
255
255
255
255
255
255
255
255
251
236
234
229
122
109
225
97
81
231
131
119
225
96
80
245
206
201
255
255
255
255
255
255
255
255
255
255
255
255
221
75
57
255
255
255
255
255
255
255
255
255
255
255
255
255
255
255
255
255
255
255
255
255
255
255
255
255
255
255
226
102
87
222
84
67
251
238
237
255
255
255
255
255
255
221
75
57
221
75
57
221
75
57
221
75
57
221
75
57
255
255
255
255
255
255
255
255
255
255
255
255
255
255
255
253
249
248
246
211
206
229
120
107
221
75
57
224
93
77
249
228
225
255
255
255
255
255
255
255
255
255
221
75
57
255
255
255
255
255
255
255
255
255
255
255
255
255
255
255
253
244
243
231
131
119
229
118
105
239
174
166
245
204
199
235
154
143
221
77
60
224
91
75
254
250
250
255
255
255
255
255
255
221
75
57
255
255
255
255
255
255
255
255
255
255
255
255
255
255
255
228
115
101
227
109
95
255
255
255
255
255
255
255
255
255
255
255
255
242
189
182
221
75
57
245
205
200
255
255
255
255
255
255
255
255
255
255
255
255
255
255
255
255
255
255
255
255
255
255
255
255
221
79
61
231
131
119
255
255
255
255
255
255
255
255
255
255
255
255
255
255
255
222
82
64
249
226
223
255
255
255
255
255
255
255
255
255
255
255
255
255
255
255
255
255
255
255
255
255
255
255
255
227
111
97
222
80
63
243
195
189
255
255
255
255
255
255
255
255
255
238
169
161
232
135
123
255
255
255
255
255
255
255
255
255
255
255
255
255
255
255
255
255
255
255
255
255
255
255
255
255
255
255
252
240
239
231
132
120
223
90
74
224
94
78
228
113
99
230
123
109
239
171
162
255
255
255
255
255
255
255
255
255
255
255
255
255
255
255
255
255
255
255
255
255
