P3
# CREATOR: GIMP PNM Filter Version 1.1
13 11
255
255
255
255
255
255
255
255
255
255
255
255
255
255
255
255
255
255
255
255
255
255
255
255
255
255
255
255
255
255
255
255
255
255
255
255
255
255
255
255
255
255
255
255
255
255
238
241
241
138
159
159
68
83
83
68
83
83
68
83
83
68
83
83
68
83
83
138
159
159
238
241
241
255
255
255
255
255
255
255
255
255
255
255
255
138
159
159
68
83
83
255
255
255
255
255
255
238
241
241
255
255
255
255
255
255
68
83
83
138
159
159
255
255
255
255
255
255
255
255
255
255
255
255
68
83
83
255
255
255
255
255
255
255
255
255
183
196
196
255
255
255
255
255
255
255
255
255
68
83
83
255
255
255
255
255
255
255
255
255
255
255
255
68
83
83
255
255
255
255
255
255
255
255
255
68
83
83
255
255
255
255
255
255
255
255
255
68
83
83
255
255
255
255
255
255
255
255
255
255
255
255
68
83
83
255
255
255
255
255
255
255
255
255
68
83
83
68
83
83
68
83
83
183
196
196
68
83
83
255
255
255
255
255
255
255
255
255
255
255
255
68
83
83
255
255
255
255
255
255
255
255
255
255
255
255
255
255
255
255
255
255
255
255
255
68
83
83
255
255
255
255
255
255
255
255
255
255
255
255
68
83
83
255
255
255
255
255
255
255
255
255
255
255
255
255
255
255
255
255
255
255
255
255
68
83
83
255
255
255
255
255
255
255
255
255
255
255
255
138
159
159
68
83
83
255
255
255
255
255
255
255
255
255
255
255
255
255
255
255
68
83
83
138
159
159
255
255
255
255
255
255
255
255
255
255
255
255
238
241
241
138
159
159
68
83
83
68
83
83
68
83
83
68
83
83
68
83
83
138
159
159
238
241
241
255
255
255
255
255
255
255
255
255
255
255
255
255
255
255
255
255
255
255
255
255
255
255
255
255
255
255
255
255
255
255
255
255
255
255
255
255
255
255
255
255
255
255
255
255
