P3
# CREATOR: GIMP PNM Filter Version 1.1
17 14
255
174
174
174
174
174
174
174
174
174
174
174
174
174
174
174
174
174
174
174
174
174
174
174
174
174
174
174
174
174
174
174
174
174
174
174
174
174
174
174
174
174
174
174
174
174
174
174
174
174
174
174
174
174
174
255
255
255
255
255
255
255
255
255
255
255
255
255
255
255
255
255
255
255
255
255
255
255
255
255
255
255
255
255
255
255
255
255
255
255
255
255
255
255
255
255
255
255
255
255
174
174
174
174
174
174
255
255
255
255
255
255
255
255
255
255
255
255
255
255
255
255
255
255
255
255
255
255
255
255
255
255
255
255
255
255
255
255
255
255
255
255
255
255
255
255
255
255
255
255
255
174
174
174
174
174
174
255
255
255
255
255
255
255
255
255
255
255
255
255
255
255
255
255
255
255
255
255
255
255
255
255
255
255
255
255
255
255
255
255
255
255
255
255
255
255
255
255
255
255
255
255
174
174
174
174
174
174
255
255
255
170
205
144
170
205
144
170
205
144
255
255
255
170
205
144
255
255
255
255
255
255
255
255
255
255
255
255
255
255
255
255
255
255
255
255
255
255
255
255
255
255
255
174
174
174
174
174
174
255
255
255
170
205
144
255
255
255
170
205
144
255
255
255
170
205
144
255
255
255
170
205
144
170
205
144
170
205
144
255
255
255
170
205
144
255
255
255
170
205
144
255
255
255
174
174
174
174
174
174
255
255
255
170
205
144
170
205
144
170
205
144
255
255
255
170
205
144
255
255
255
255
255
255
255
255
255
170
205
144
255
255
255
170
205
144
255
255
255
170
205
144
255
255
255
174
174
174
174
174
174
255
255
255
170
205
144
255
255
255
255
255
255
255
255
255
170
205
144
255
255
255
170
205
144
170
205
144
170
205
144
255
255
255
170
205
144
170
205
144
170
205
144
255
255
255
174
174
174
174
174
174
255
255
255
170
205
144
255
255
255
255
255
255
255
255
255
170
205
144
255
255
255
170
205
144
204
229
185
170
205
144
255
255
255
255
255
255
255
255
255
170
205
144
255
255
255
174
174
174
174
174
174
255
255
255
255
255
255
255
255
255
255
255
255
255
255
255
255
255
255
255
255
255
255
255
255
255
255
255
255
255
255
255
255
255
255
255
255
255
255
255
170
205
144
255
255
255
174
174
174
174
174
174
255
255
255
255
255
255
255
255
255
255
255
255
255
255
255
255
255
255
255
255
255
255
255
255
255
255
255
255
255
255
255
255
255
255
255
255
255
255
255
255
255
255
255
255
255
174
174
174
174
174
174
255
255
255
255
255
255
255
255
255
255
255
255
255
255
255
255
255
255
255
255
255
255
255
255
255
255
255
255
255
255
255
255
255
255
255
255
255
255
255
255
255
255
255
255
255
174
174
174
174
174
174
255
255
255
255
255
255
255
255
255
255
255
255
255
255
255
255
255
255
255
255
255
255
255
255
255
255
255
255
255
255
255
255
255
255
255
255
255
255
255
255
255
255
255
255
255
174
174
174
174
174
174
174
174
174
174
174
174
174
174
174
174
174
174
174
174
174
174
174
174
174
174
174
174
174
174
174
174
174
174
174
174
174
174
174
174
174
174
174
174
174
174
174
174
174
174
174
174
174
174
