P3
# CREATOR: GIMP PNM Filter Version 1.1
17 14
255
255
255
255
255
255
255
255
255
255
255
255
255
255
255
255
255
255
255
254
254
254
254
254
254
254
254
254
254
254
254
255
255
255
255
255
255
255
255
255
255
255
255
255
255
255
255
255
255
255
255
255
255
255
255
255
255
255
255
255
255
255
255
255
254
254
254
245
245
245
159
159
159
159
159
159
159
159
159
159
159
159
246
246
246
254
254
254
255
255
255
255
255
255
255
255
255
255
255
255
255
255
255
255
255
255
255
255
255
255
255
255
255
255
255
250
250
250
159
159
159
246
246
246
247
247
247
247
247
247
246
246
246
159
159
159
250
250
250
255
255
255
255
255
255
255
255
255
255
255
255
255
255
255
255
255
255
255
255
255
255
255
255
255
255
255
249
249
249
159
159
159
254
254
254
255
255
255
255
255
255
254
254
254
159
159
159
249
249
249
255
255
255
255
255
255
255
255
255
255
255
255
255
255
255
255
255
255
255
255
255
255
255
255
255
255
255
249
249
249
159
159
159
254
254
254
255
255
255
255
255
255
254
254
254
159
159
159
249
249
249
255
255
255
255
255
255
255
255
255
255
255
255
255
255
255
255
255
255
255
255
255
255
255
255
254
254
254
249
249
249
159
159
159
252
252
252
252
252
252
252
252
252
252
252
252
159
159
159
249
249
249
254
254
254
255
255
255
255
255
255
255
255
255
255
255
255
255
255
255
255
255
255
255
255
255
252
252
252
159
159
159
159
159
159
159
159
159
159
159
159
159
159
159
159
159
159
159
159
159
159
159
159
253
253
253
255
255
255
255
255
255
255
255
255
255
255
255
255
255
255
255
255
255
255
255
255
251
251
251
159
159
159
159
159
159
159
159
159
202
202
202
202
202
202
159
159
159
159
159
159
159
159
159
251
251
251
255
255
255
255
255
255
255
255
255
255
255
255
255
255
255
255
255
255
255
255
255
251
251
251
159
159
159
159
159
159
217
217
217
207
207
207
209
209
209
215
215
215
159
159
159
159
159
159
251
251
251
255
255
255
255
255
255
255
255
255
255
255
255
255
255
255
255
255
255
255
255
255
251
251
251
159
159
159
159
159
159
225
225
225
216
216
216
217
217
217
224
224
224
159
159
159
159
159
159
251
251
251
255
255
255
255
255
255
255
255
255
255
255
255
255
255
255
255
255
255
255
255
255
251
251
251
159
159
159
159
159
159
216
216
216
227
227
227
227
227
227
215
215
215
159
159
159
159
159
159
251
251
251
255
255
255
255
255
255
255
255
255
255
255
255
255
255
255
255
255
255
255
255
255
251
251
251
159
159
159
159
159
159
159
159
159
204
204
204
203
203
203
159
159
159
159
159
159
159
159
159
251
251
251
255
255
255
255
255
255
255
255
255
255
255
255
255
255
255
255
255
255
255
255
255
253
253
253
159
159
159
159
159
159
159
159
159
159
159
159
159
159
159
159
159
159
159
159
159
159
159
159
253
253
253
255
255
255
255
255
255
255
255
255
255
255
255
255
255
255
255
255
255
255
255
255
254
254
254
253
253
253
252
252
252
252
252
252
252
252
252
252
252
252
252
252
252
252
252
252
253
253
253
254
254
254
255
255
255
255
255
255
255
255
255
255
255
255
