P3
# CREATOR: GIMP PNM Filter Version 1.1
17 14
255
255
255
255
255
255
255
255
255
255
255
255
255
253
253
253
178
162
140
164
138
104
152
117
74
152
117
74
164
138
104
178
162
140
253
253
253
255
255
255
255
255
255
255
255
255
255
255
255
255
255
255
255
255
255
255
255
255
255
255
255
235
233
229
153
128
95
150
97
30
149
85
8
156
85
2
156
85
2
149
85
8
152
97
30
153
128
95
235
233
229
255
255
255
255
255
255
255
255
255
255
255
255
255
255
255
255
255
255
255
255
255
160
138
111
159
108
46
202
155
97
208
156
98
163
108
42
163
108
42
206
158
100
202
154
97
161
113
52
160
138
111
255
255
255
255
255
255
255
255
255
255
255
255
217
210
201
144
117
78
140
116
84
139
99
50
208
155
95
227
164
97
226
162
93
218
159
95
218
159
95
226
162
93
227
164
97
209
157
98
138
99
50
140
115
84
146
118
80
216
210
201
255
255
255
145
119
82
151
104
47
160
112
59
149
103
44
227
163
97
227
162
95
220
159
97
228
167
103
228
167
103
220
159
97
227
162
95
227
164
98
149
105
47
161
112
56
149
109
59
146
119
84
255
255
255
122
88
44
215
151
84
229
179
127
133
91
39
226
172
116
228
174
116
38
29
20
206
160
113
206
160
113
38
29
20
228
174
116
226
173
118
134
92
39
224
160
93
215
167
111
120
90
48
255
255
255
142
119
88
146
99
46
171
132
86
130
89
37
215
170
120
234
186
138
186
151
116
236
193
151
236
193
151
186
151
116
234
186
138
216
172
123
130
89
37
168
118
63
144
103
52
143
121
91
255
255
255
223
219
212
145
123
94
116
93
58
182
137
85
219
175
130
205
168
129
200
167
133
211
180
148
211
180
148
200
167
133
205
168
129
219
175
130
184
142
91
116
92
57
145
123
94
223
219
212
255
255
255
255
255
255
255
255
255
134
104
63
217
172
125
236
192
149
78
66
54
241
210
181
229
205
181
229
205
181
241
210
181
78
66
54
236
192
149
218
175
129
134
104
63
255
255
255
255
255
255
255
255
255
255
255
255
255
255
255
146
123
95
196
153
103
236
191
147
238
200
162
79
68
58
80
70
62
80
70
62
79
68
58
238
200
162
236
191
147
198
157
109
146
123
95
255
255
255
255
255
255
255
255
255
255
255
255
255
255
255
189
179
165
147
106
53
227
185
140
236
192
149
238
198
159
239
202
166
239
202
166
238
198
159
236
192
149
228
187
144
147
107
55
189
179
165
255
255
255
255
255
255
255
255
255
255
255
255
255
255
255
255
255
255
185
175
160
140
102
53
181
140
90
210
170
125
228
188
146
228
188
147
210
170
126
183
142
93
140
103
54
185
175
160
255
255
255
255
255
255
255
255
255
255
255
255
255
255
255
255
255
255
255
255
255
255
255
255
221
216
210
160
144
121
141
115
81
129
96
51
129
96
51
141
115
81
160
144
121
221
216
210
255
255
255
255
255
255
255
255
255
255
255
255
255
255
255
255
255
255
255
255
255
255
255
255
255
255
255
255
255
255
255
255
255
255
255
255
255
255
255
255
255
255
255
255
255
255
255
255
255
255
255
255
255
255
255
255
255
255
255
255
255
255
255
255
255
255
