P3
# CREATOR: GIMP PNM Filter Version 1.1
13 11
255
255
255
255
255
255
255
255
255
255
255
255
255
255
255
255
255
255
255
255
255
255
255
255
255
255
255
255
255
255
255
255
255
255
255
255
255
255
255
255
255
255
255
255
255
255
68
83
83
68
83
83
68
83
83
167
183
183
167
183
183
167
183
183
205
214
214
205
214
214
205
214
214
255
255
255
255
255
255
255
255
255
255
255
255
68
83
83
68
83
83
68
83
83
167
183
183
167
183
183
167
183
183
205
214
214
205
214
214
205
214
214
255
255
255
255
255
255
255
255
255
255
255
255
68
83
83
68
83
83
68
83
83
167
183
183
167
183
183
167
183
183
205
214
214
205
214
214
205
214
214
255
255
255
255
255
255
255
255
255
255
255
255
167
183
183
167
183
183
167
183
183
167
183
183
167
183
183
167
183
183
205
214
214
205
214
214
205
214
214
255
255
255
255
255
255
255
255
255
255
255
255
167
183
183
167
183
183
167
183
183
167
183
183
167
183
183
167
183
183
205
214
214
205
214
214
205
214
214
255
255
255
255
255
255
255
255
255
255
255
255
167
183
183
167
183
183
167
183
183
167
183
183
167
183
183
167
183
183
205
214
214
205
214
214
205
214
214
255
255
255
255
255
255
255
255
255
255
255
255
205
214
214
205
214
214
205
214
214
205
214
214
205
214
214
205
214
214
205
214
214
205
214
214
205
214
214
255
255
255
255
255
255
255
255
255
255
255
255
205
214
214
205
214
214
205
214
214
205
214
214
205
214
214
205
214
214
205
214
214
205
214
214
205
214
214
255
255
255
255
255
255
255
255
255
255
255
255
205
214
214
205
214
214
205
214
214
205
214
214
205
214
214
205
214
214
205
214
214
205
214
214
205
214
214
255
255
255
255
255
255
255
255
255
255
255
255
255
255
255
255
255
255
255
255
255
255
255
255
255
255
255
255
255
255
255
255
255
255
255
255
255
255
255
255
255
255
255
255
255
